<svg id="Layer_1" data-name="Layer 1" xmlns="http://www.w3.org/2000/svg" viewBox="0 0 503.06 500"><path d="M851.53,399.91C851.53,261,738.92,148.38,600,148.38S348.47,261,348.47,399.91c0,125.54,92,229.6,212.23,248.47V472.62H496.83V399.91H560.7V344.49c0-63,37.55-97.86,95-97.86,27.52,0,56.31,4.92,56.31,4.92v61.9H680.29c-31.24,0-41,19.38-41,39.28v47.18h69.76l-11.15,72.71H639.3V648.38c120.25-18.87,212.23-122.93,212.23-248.47" transform="translate(-348.47 -148.38)" style="fill:#100f0d"/><path d="M333.33,133.33" transform="translate(-348.47 -148.38)" style="fill:#100f0d"/></svg>