<svg id="Layer_1" data-name="Layer 1" xmlns="http://www.w3.org/2000/svg" viewBox="0 0 500 500"><path d="M600,150c-67.9,0-76.41.29-103.07,1.5s-44.79,5.44-60.69,11.62a127.89,127.89,0,0,0-73.12,73.12c-6.18,15.9-10.4,34.08-11.62,60.69S350,332.1,350,400s.29,76.41,1.5,103.07,5.44,44.79,11.62,60.69a127.89,127.89,0,0,0,73.12,73.12c15.9,6.18,34.08,10.4,60.69,11.62S532.1,650,600,650s76.41-.29,103.07-1.5,44.79-5.44,60.69-11.62a127.89,127.89,0,0,0,73.12-73.12c6.18-15.9,10.4-34.08,11.62-60.69S850,467.9,850,400s-.29-76.41-1.5-103.07-5.44-44.79-11.62-60.69a127.89,127.89,0,0,0-73.12-73.12c-15.9-6.18-34.08-10.4-60.69-11.62S667.9,150,600,150Zm0,45c66.75,0,74.66.26,101,1.46,24.38,1.11,37.61,5.19,46.42,8.61a82.76,82.76,0,0,1,47.45,47.45c3.42,8.81,7.5,22,8.61,46.42,1.2,26.36,1.46,34.27,1.46,101s-.26,74.66-1.46,101c-1.11,24.38-5.19,37.61-8.61,46.42a82.76,82.76,0,0,1-47.45,47.45c-8.81,3.42-22,7.5-46.42,8.61-26.36,1.2-34.26,1.46-101,1.46s-74.66-.26-101-1.46c-24.38-1.11-37.61-5.19-46.42-8.61a82.76,82.76,0,0,1-47.45-47.45c-3.42-8.81-7.5-22-8.61-46.42-1.2-26.36-1.46-34.27-1.46-101s.26-74.66,1.46-101c1.11-24.38,5.19-37.61,8.61-46.42a82.76,82.76,0,0,1,47.45-47.45c8.81-3.42,22-7.5,46.42-8.61,26.36-1.2,34.27-1.46,101-1.46" transform="translate(-350 -150)" style="fill:#231f20"/><path d="M600,483.33A83.33,83.33,0,1,1,683.33,400,83.33,83.33,0,0,1,600,483.33Zm0-211.71A128.38,128.38,0,1,0,728.38,400,128.38,128.38,0,0,0,600,271.62m163.45-5.07a30,30,0,1,1-30-30,30,30,0,0,1,30,30" transform="translate(-350 -150)" style="fill:#231f20"/></svg>