<svg id="Layer_1" data-name="Layer 1" xmlns="http://www.w3.org/2000/svg" viewBox="0 0 615.26 500"><path d="M672.63,217.19a252,252,0,0,1-72.5,19.87,126.44,126.44,0,0,0,55.5-69.83,252.7,252.7,0,0,1-80.16,30.63A126,126,0,0,0,483.33,158c-81.49,0-141.38,76-123,155A358.34,358.34,0,0,1,100.21,181.1a126.4,126.4,0,0,0,39,168.53,125.74,125.74,0,0,1-57.14-15.79C80.72,392.31,122.64,447,183.34,459.19a126.55,126.55,0,0,1-57,2.16A126.33,126.33,0,0,0,244.26,549,253.83,253.83,0,0,1,57.37,601.29,357.28,357.28,0,0,0,250.87,658c234.36,0,366.77-197.93,358.77-375.46A257,257,0,0,0,672.63,217.19Z" transform="translate(-57.37 -158)"/></svg>